<?xml version="1.0" standalone="no"?><!-- Generator: Gravit.io --><svg xmlns="http://www.w3.org/2000/svg" xmlns:xlink="http://www.w3.org/1999/xlink" style="isolation:isolate" viewBox="0 0 48 48" width="48" height="48"><defs><clipPath id="_clipPath_ZH5fgxyeuPgR4zPEXFVBachPs0xgiuPi"><rect width="48" height="48"/></clipPath></defs><g clip-path="url(#_clipPath_ZH5fgxyeuPgR4zPEXFVBachPs0xgiuPi)"><path d=" M 41 42 L 7 42 C 4.793 42 3 40.207 3 38 L 3 10 C 3 7.793 4.793 6 7 6 L 41 6 C 43.207 6 45 7.793 45 10 L 45 38 C 45 40.207 43.207 42 41 42 Z " fill="rgb(255,193,7)"/><path d=" M 7 10 L 41 10 L 41 38 L 7 38 L 7 10 Z " fill="rgb(70,127,207)"/><path d=" M 28 36 L 36 36 L 36 38 L 28 38 L 28 36 Z " fill="rgb(255,255,255)"/><path d=" M 27 20 C 27 21.072 26.427 22.063 25.499 22.598 C 24.57 23.134 23.426 23.134 22.498 22.597 C 21.569 22.061 20.998 21.07 20.998 19.998 C 20.999 18.341 22.343 16.997 24 16.998 C 25.657 16.999 27.001 18.343 27 20 L 27 20 Z " fill="rgb(255,255,255)"/><path d=" M 18 23 C 18 24.105 17.105 25 16 25 C 14.895 25 14 24.105 14 23 C 14 21.895 14.895 21 16 21 C 17.105 21 18 21.895 18 23 Z " fill="rgb(69,170,242)"/><path d=" M 7 10 L 41 10 L 41 12 L 7 12 L 7 10 Z " fill="rgb(101,116,205)"/><path d=" M 36 38 L 28 38 L 32 42 L 40 42 L 36 38 Z " fill="rgb(255,171,0)"/><path d=" M 34 23 C 34 24.105 33.105 25 32 25 C 30.895 25 30 24.105 30 23 C 30 21.895 30.895 21 32 21 C 33.105 21 34 21.895 34 23 Z " fill="rgb(69,170,242)"/><path d=" M 37 28.688 C 37 28.242 36.836 27.813 36.531 27.488 C 35.84 26.75 34.363 26 32 26 C 29.637 26 28.16 26.75 27.469 27.488 C 27.165 27.814 26.998 28.243 27 28.688 L 27 30 L 37 30 L 37 28.688 Z " fill="rgb(69,170,242)"/><path d=" M 21 28.688 C 21 28.242 20.836 27.813 20.531 27.488 C 19.84 26.75 18.363 26 16 26 C 13.637 26 12.16 26.75 11.469 27.488 C 11.165 27.814 10.998 28.243 11 28.688 L 11 30 L 21 30 L 21 28.688 Z " fill="rgb(69,170,242)"/><path d=" M 30 27.742 C 30 27.207 29.805 26.695 29.437 26.305 C 28.605 25.418 26.837 24 24 24 C 21.164 24 19.395 25.418 18.562 26.305 C 18.197 26.694 17.996 27.209 18 27.742 L 18 30 L 30 30 L 30 27.742 Z " fill="rgb(255,255,255)"/></g></svg>