<?xml version="1.0" standalone="no"?><!-- Generator: Gravit.io --><svg xmlns="http://www.w3.org/2000/svg" xmlns:xlink="http://www.w3.org/1999/xlink" style="isolation:isolate" viewBox="0 0 42 42" width="42" height="42"><defs><clipPath id="_clipPath_AusTOnq4FvrVrq3ZJNOd1g4bNOM2ZCjS"><rect width="42" height="42"/></clipPath></defs><g clip-path="url(#_clipPath_AusTOnq4FvrVrq3ZJNOd1g4bNOM2ZCjS)"><clipPath id="_clipPath_LTR6rXzgPnqjNFkqUBBgTBWoQMjYURG9"><rect x="5" y="5" width="32" height="32" transform="matrix(1,0,0,1,0,0)" fill="rgb(255,255,255)"/></clipPath><g clip-path="url(#_clipPath_LTR6rXzgPnqjNFkqUBBgTBWoQMjYURG9)"><g><g><line x1="21" y1="31.519" x2="21" y2="19.759" vector-effect="non-scaling-stroke" stroke-width="2" stroke="rgb(255,255,255)" stroke-opacity="100" stroke-linejoin="round" stroke-linecap="round" stroke-miterlimit="4"/><path d=" M 11.32 14.919 L 21 19.759 L 30.68 14.919" fill="none" vector-effect="non-scaling-stroke" stroke-width="2" stroke="rgb(255,255,255)" stroke-opacity="100" stroke-linejoin="round" stroke-linecap="round" stroke-miterlimit="4"/><path d=" M 21.89 10.209 L 29.89 14.209 C 30.57 14.547 31 15.24 31 15.999 L 31 25.529 C 31 26.288 30.57 26.981 29.89 27.319 L 21.89 31.319 C 21.327 31.601 20.663 31.601 20.1 31.319 L 12.1 27.319 C 11.421 26.977 10.995 26.279 11 25.519 L 11 15.999 C 11 15.24 11.43 14.547 12.11 14.209 L 20.11 10.209 C 20.671 9.93 21.329 9.93 21.89 10.209 Z " fill="none" vector-effect="non-scaling-stroke" stroke-width="2" stroke="rgb(255,255,255)" stroke-opacity="100" stroke-linejoin="round" stroke-linecap="round" stroke-miterlimit="4"/></g></g></g></g></svg>